<?xml version="1.0" encoding="UTF-8" standalone="no"?>
<!-- Created with Inkscape (http://www.inkscape.org/) -->

<svg
   xmlns:dc="http://purl.org/dc/elements/1.1/"
   xmlns:cc="http://creativecommons.org/ns#"
   xmlns:rdf="http://www.w3.org/1999/02/22-rdf-syntax-ns#"
   xmlns:svg="http://www.w3.org/2000/svg"
   xmlns="http://www.w3.org/2000/svg"
   xmlns:sodipodi="http://sodipodi.sourceforge.net/DTD/sodipodi-0.dtd"
   xmlns:inkscape="http://www.inkscape.org/namespaces/inkscape"
   version="1.1"
   id="svg2"
   xml:space="preserve"
   width="1615.24"
   height="1615.2533"
   viewBox="0 0 1615.24 1615.2533"
   sodipodi:docname="logo.svg"
   inkscape:version="0.92.1 r15371"><metadata
     id="metadata8"><rdf:RDF><cc:Work
         rdf:about=""><dc:format>image/svg+xml</dc:format><dc:type
           rdf:resource="http://purl.org/dc/dcmitype/StillImage" /><dc:title></dc:title></cc:Work></rdf:RDF></metadata><defs
     id="defs6" /><sodipodi:namedview
     pagecolor="#ffffff"
     bordercolor="#666666"
     borderopacity="1"
     objecttolerance="10"
     gridtolerance="10"
     guidetolerance="10"
     inkscape:pageopacity="0"
     inkscape:pageshadow="2"
     inkscape:window-width="1600"
     inkscape:window-height="836"
     id="namedview4"
     showgrid="false"
     inkscape:pagecheckerboard="true"
     inkscape:zoom="0.14610712"
     inkscape:cx="807.62"
     inkscape:cy="807.62665"
     inkscape:window-x="0"
     inkscape:window-y="27"
     inkscape:window-maximized="1"
     inkscape:current-layer="g10" /><g
     id="g10"
     inkscape:groupmode="layer"
     inkscape:label="ink_ext_XXXXXX"
     transform="matrix(1.3333333,0,0,-1.3333333,0,1615.2533)"><path
       inkscape:connector-curvature="0"
       id="path14"
       style="fill:#26b8e1;fill-opacity:1;fill-rule:nonzero;stroke:none;stroke-width:0.1"
       d="M 932.86844,242.71974 C 965.68433,174.85799 937.27639,93.229354 869.40627,60.409416 795.43055,24.636995 716.58641,4.5163719 635.04082,0.59458025 556.36322,-3.1938603 478.67037,8.2321048 404.12589,34.532918 330.41805,60.550733 263.41683,99.850923 204.9804,151.34708 144.42227,204.7275 95.782131,268.88073 60.410659,342.02731 93.231032,274.15629 174.85041,245.74498 242.72098,278.56513 l 149.10198,72.10121 c 30.16803,-25.28877 64.94678,-45.20443 103.16138,-58.69335 84.32398,-29.75821 175.08914,-24.71102 255.57378,14.20892 67.87012,32.81994 149.48995,4.40884 182.31032,-63.46217" /><path
       inkscape:connector-curvature="0"
       id="path16"
       style="fill:#b4b8bf;fill-opacity:1;fill-rule:nonzero;stroke:none;stroke-width:0.1"
       d="M 1087.5572,687.10237 242.72098,278.56513 c 67.86201,32.81602 96.28254,114.4393 63.46217,182.31032 -32.82037,67.87102 -114.4483,96.2782 -182.31032,63.46218 l 695.74322,336.44038 c 35.61376,-29.81993 64.80408,-67.14476 85.6308,-110.21346 32.82037,-67.87102 114.44015,-96.28211 182.31035,-63.46218" /><path
       inkscape:connector-curvature="0"
       id="path18"
       style="fill:#4864b8;fill-opacity:1;fill-rule:nonzero;stroke:none;stroke-width:0.1"
       d="M 460.86468,905.25461 C 380.85808,866.56584 320.70715,799.03445 291.4913,715.10493 278.0091,676.35041 271.8602,636.2546 272.96671,596.43492 L 123.87283,524.33763 C 56.002263,491.51747 27.590286,409.89833 60.410659,342.02731 24.83893,415.588 4.7306656,493.99381 0.65086399,575.06311 -3.2826291,653.30401 7.8206355,730.60754 33.66578,804.85392 c 25.840495,74.23302 65.144597,141.7361 116.80659,200.60828 53.53401,61.0215 117.98256,109.9927 191.54416,145.5649 -67.87192,-32.8208 -96.28255,-114.4393 -63.46217,-182.31032 32.82037,-67.87102 114.4384,-96.28298 182.31032,-63.46217" /><path
       inkscape:connector-curvature="0"
       id="path20"
       style="fill:#1b93d2;fill-opacity:1;fill-rule:nonzero;stroke:none;stroke-width:0.1"
       d="m 306.18315,460.87545 c 32.82037,-67.87102 4.39984,-149.4943 -63.46217,-182.31032 -67.87057,-32.82015 -149.489948,-4.40884 -182.310321,63.46218 -32.820373,67.87102 -4.408396,149.49016 63.462171,182.31032 67.86202,32.81602 149.48995,4.40884 182.31032,-63.46218" /><path
       inkscape:connector-curvature="0"
       id="path22"
       style="fill:#f5c22b;fill-opacity:1;fill-rule:nonzero;stroke:none;stroke-width:0.1"
       d="m 1151.0193,869.41269 c -32.8203,67.87102 -114.4483,96.2782 -182.31028,63.46218 L 819.61605,860.77801 c -30.52629,25.59317 -65.7725,45.67155 -104.5318,59.16366 -83.92053,29.2202 -174.20397,24.00606 -254.21957,-14.68706 67.87011,32.81994 96.28254,114.43929 63.46217,182.31029 -32.82037,67.871 -114.4402,96.2821 -182.31032,63.4622 73.5607,35.5717 151.97439,55.6844 233.04808,59.7551 78.23642,3.9427 155.54461,-7.1702 229.78199,-33.0197 74.23302,-25.8405 141.72231,-65.139 200.6083,-116.8066 61.0125,-53.5383 109.9927,-117.98251 145.5644,-191.54321" /><path
       inkscape:connector-curvature="0"
       id="path24"
       style="fill:#1f87cf;fill-opacity:1;fill-rule:nonzero;stroke:none;stroke-width:0.1"
       d="m 524.32685,1087.5649 c 32.82037,-67.871 4.40794,-149.49035 -63.46217,-182.31029 -67.87192,-32.82081 -149.48995,-4.40885 -182.31032,63.46217 -32.82038,67.87102 -4.40975,149.48952 63.46217,182.31032 67.87012,32.8199 149.48995,4.4088 182.31032,-63.4622" /><path
       inkscape:connector-curvature="0"
       id="path26"
       style="fill:#9ca2a9;fill-opacity:1;fill-rule:nonzero;stroke:none;stroke-width:0.1"
       d="m 1151.0193,869.41269 c 32.8204,-67.87102 4.3999,-149.4943 -63.4621,-182.31032 -67.8702,-32.81993 -149.48998,-4.40884 -182.31035,63.46218 -20.82672,43.0687 -50.01704,80.39353 -85.6308,110.21346 l 149.09297,72.09686 c 67.86198,32.81602 149.48998,4.40884 182.31028,-63.46218" /></g></svg>