<?xml version="1.0" encoding="UTF-8" standalone="no"?>
<!-- Created with Inkscape (http://www.inkscape.org/) -->

<svg
   xmlns:dc="http://purl.org/dc/elements/1.1/"
   xmlns:cc="http://creativecommons.org/ns#"
   xmlns:rdf="http://www.w3.org/1999/02/22-rdf-syntax-ns#"
   xmlns:svg="http://www.w3.org/2000/svg"
   xmlns="http://www.w3.org/2000/svg"
   xmlns:sodipodi="http://sodipodi.sourceforge.net/DTD/sodipodi-0.dtd"
   xmlns:inkscape="http://www.inkscape.org/namespaces/inkscape"
   version="1.1"
   id="svg2"
   xml:space="preserve"
   width="1615.24"
   height="1615.2533"
   viewBox="0 0 1615.24 1615.2533"
   sodipodi:docname="logo1.svg"
   inkscape:version="0.92.1 r15371"><metadata
     id="metadata8"><rdf:RDF><cc:Work
         rdf:about=""><dc:format>image/svg+xml</dc:format><dc:type
           rdf:resource="http://purl.org/dc/dcmitype/StillImage" /><dc:title></dc:title></cc:Work></rdf:RDF></metadata><defs
     id="defs6" /><sodipodi:namedview
     pagecolor="#ffffff"
     bordercolor="#666666"
     borderopacity="1"
     objecttolerance="10"
     gridtolerance="10"
     guidetolerance="10"
     inkscape:pageopacity="0"
     inkscape:pageshadow="2"
     inkscape:window-width="1600"
     inkscape:window-height="836"
     id="namedview4"
     showgrid="false"
     inkscape:pagecheckerboard="true"
     inkscape:zoom="0.14610712"
     inkscape:cx="807.62"
     inkscape:cy="807.62665"
     inkscape:window-x="0"
     inkscape:window-y="27"
     inkscape:window-maximized="1"
     inkscape:current-layer="g10" /><g
     id="g10"
     inkscape:groupmode="layer"
     inkscape:label="ink_ext_XXXXXX"
     transform="matrix(1.3333333,0,0,-1.3333333,0,1615.2533)"><path
       inkscape:connector-curvature="0"
       id="path14"
       style="fill:#2978a0;fill-opacity:1;fill-rule:nonzero;stroke:none;stroke-width:0.1"
       d="M 887.06226,206.16739 C 911.51864,134.86533 873.54345,57.224293 802.23258,32.76489 724.50659,6.1051181 643.82082,-4.4326188 562.39214,1.4353759 483.82678,7.0924448 408.06037,27.736634 337.20032,62.771829 267.13701,97.425907 205.32209,144.46402 153.47032,202.58514 99.737665,262.83095 59.126878,332.34544 32.765918,409.20025 57.225645,337.88845 134.85708,299.91102 206.16842,324.37058 l 156.66085,53.73419 c 26.92386,-28.71826 59.06847,-52.65397 95.39356,-70.62046 80.15536,-39.63841 170.87204,-45.49274 255.43693,-16.48725 71.31086,24.4594 148.94277,-13.51786 173.4025,-84.82967" /><path
       inkscape:connector-curvature="0"
       id="path16"
       style="fill:#b4b8bf;fill-opacity:1;fill-rule:nonzero;stroke:none;stroke-width:0.1"
       d="M 1093.8344,628.83725 206.16842,324.37058 c 71.30235,24.45649 109.2894,102.0907 84.82967,173.4025 -24.45973,71.31181 -102.10015,109.28616 -173.4025,84.82967 l 731.0146,250.73573 c 31.78802,-33.86873 56.30039,-74.41945 71.82172,-119.67156 24.45973,-71.31181 102.09159,-109.28908 173.40249,-84.82967" /><path
       inkscape:connector-curvature="0"
       id="path18"
       style="fill:#445064;fill-opacity:1;fill-rule:nonzero;stroke:none;stroke-width:0.1"
       d="M 497.76268,920.44034 C 413.70006,891.60713 345.89768,831.76184 306.84496,751.93317 288.82051,715.07124 277.91608,675.99983 274.24793,636.33402 L 117.59559,582.60275 C 46.284255,558.14319 8.3061906,480.51206 32.765918,409.20025 6.2557134,486.49018 -4.3222256,566.73929 1.3318799,647.71402 6.792663,725.86318 27.069869,801.28171 61.616985,871.90035 96.157888,942.50629 143.25996,1004.819 201.59789,1057.0835 c 60.45376,54.1743 130.30108,95.0785 207.59196,121.589 -71.31275,-24.46 -109.2894,-102.0907 -84.82967,-173.4025 24.45972,-71.31179 102.08974,-109.28971 173.4025,-84.82966" /><path
       inkscape:connector-curvature="0"
       id="path20"
       style="fill:#820263;fill-opacity:1;fill-rule:nonzero;stroke:none;stroke-width:0.1"
       d="m 290.99809,497.77308 c 24.45973,-71.3118 -13.52732,-148.94601 -84.82967,-173.4025 -71.31134,-24.45956 -148.942775,13.51787 -173.402502,84.82967 -24.4597274,71.31181 13.518337,148.94294 84.829672,173.4025 71.30235,24.45649 148.94277,-13.51786 173.4025,-84.82967" /><path
       inkscape:connector-curvature="0"
       id="path22"
       style="fill:#253031;fill-opacity:1;fill-rule:nonzero;stroke:none;stroke-width:0.1"
       d="m 1178.6641,802.23975 c -24.4597,71.3118 -102.1002,109.28615 -173.4025,84.82967 L 848.61019,833.33848 c -27.24309,29.06335 -59.83233,53.21657 -96.69783,71.25142 -79.81921,39.05597 -170.07761,44.6869 -254.14968,15.85044 71.31086,24.45941 109.2894,102.09066 84.82967,173.40246 -24.45973,71.3118 -102.09164,109.2891 -173.4025,84.8297 77.28993,26.5102 157.54739,37.0916 238.5254,31.4279 78.14581,-5.451 153.56781,-25.7384 224.17699,-60.2887 70.60595,-34.5409 132.90566,-81.6359 185.18316,-139.9809 54.1649,-60.45705 95.0785,-130.30113 121.5887,-207.59105" /><path
       inkscape:connector-curvature="0"
       id="path24"
       style="fill:#820263;fill-opacity:1;fill-rule:nonzero;stroke:none;stroke-width:0.1"
       d="M 582.59235,1093.8428 C 607.05208,1022.531 569.07354,944.89975 497.76268,920.44034 426.44992,895.98029 348.8199,933.95821 324.36018,1005.27 c -24.45973,71.3118 13.51692,148.9425 84.82967,173.4025 71.31086,24.4594 148.94277,-13.5179 173.4025,-84.8297" /><path
       inkscape:connector-curvature="0"
       id="path26"
       style="fill:#9ca2a9;fill-opacity:1;fill-rule:nonzero;stroke:none;stroke-width:0.1"
       d="m 1178.6641,802.23975 c 24.4597,-71.31181 -13.5273,-148.94602 -84.8297,-173.4025 -71.3109,-24.45941 -148.94276,13.51786 -173.40249,84.82967 -15.52133,45.25211 -40.0337,85.80283 -71.82172,119.67156 l 156.65141,53.73094 c 71.3023,24.45648 148.9428,-13.51787 173.4025,-84.82967" /></g></svg>